<svg width="658" height="257" viewBox="0 0 658 257" fill="none" xmlns="http://www.w3.org/2000/svg">
<g clip-path="url(#clip0_1212_4881)">
<path fill-rule="evenodd" clip-rule="evenodd" d="M31.185 82.2952C31.1827 86.7589 31.1804 91.2225 31.1804 95.6861C31.1804 112.804 31.1804 129.922 31.2172 147.004C31.2172 156.833 34.3463 165.52 40.8254 172.92C48.0776 181.203 57.244 185.657 68.2879 186.209C69.65 186.283 70.1286 185.915 70.0918 184.516C70.0181 179.841 70.0181 175.202 70.0918 170.527C70.1286 169.349 69.9077 168.76 68.5456 168.76C67.4412 168.797 66.3368 168.539 65.2692 168.281C54.9248 165.668 48.5193 157.458 48.4825 146.562C48.4641 138.279 48.4641 129.996 48.4641 121.713C48.4641 113.43 48.4641 105.147 48.4457 96.8641C48.4089 95.5757 48.7034 95.2076 50.0286 95.2076C53.1209 95.226 56.2224 95.226 59.3239 95.226C62.4254 95.226 65.5269 95.226 68.6192 95.2444C69.6868 95.2812 70.0918 95.0235 70.0918 93.8455C70.0181 88.9493 70.0181 84.0164 70.0918 79.1203C70.0918 77.9054 69.7236 77.6109 68.5088 77.6109C65.7143 77.6444 62.9273 77.6398 60.1411 77.6353C56.7978 77.6298 53.4555 77.6243 50.1023 77.6846C48.6298 77.7214 48.4089 77.2796 48.4089 75.9543C48.4457 70.2852 48.4457 64.6069 48.4457 58.9285C48.4457 53.25 48.4457 47.5716 48.4825 41.9023C48.4825 40.5402 48.2248 40.0984 46.7891 40.1352C42.2611 40.2457 37.6963 40.2457 33.1683 40.1352C31.5853 40.0984 31.1436 40.4666 31.1436 42.1231C31.1988 55.5138 31.1919 68.9045 31.185 82.2952ZM0.0414155 84.0241C0.0391144 88.6718 0.036813 93.32 0.036813 97.9682C0.036813 103.501 0.0327247 109.038 0.0286354 114.576C0.0204537 125.657 0.012268 136.743 0.036813 147.813C0.0736261 159.814 3.23955 171.042 9.12963 181.46C15.3879 192.357 23.9653 201.008 34.862 207.34C50.213 216.285 66.7789 218.899 83.9706 215.291C106.132 210.616 122.661 197.879 132.601 177.411C142.908 156.206 142.319 134.744 131.386 114.019C121.483 95.244 105.653 83.7215 84.9645 78.9727C83.7129 78.6782 83.4184 78.7886 83.4184 80.1139C83.492 85.1573 83.492 90.1638 83.4184 95.2072C83.4184 96.3484 83.8601 96.7166 84.8541 97.0479C97.8859 101.208 108.083 109.086 114.894 120.94C125.422 139.236 124.98 157.679 113.752 175.349C101.567 194.492 79.553 203.069 57.2811 197.732C45.6482 194.934 36.1136 188.528 28.751 179.067C20.9098 169.054 17.523 157.532 17.5966 144.831C17.6755 129.552 17.6605 114.255 17.6455 98.9654C17.6395 92.8515 17.6334 86.7389 17.6334 80.6293V80.6273C17.6334 67.7434 17.6334 54.8595 17.6703 41.9756C17.6703 40.5399 17.3021 40.0981 15.8296 40.1349C11.228 40.2453 6.62635 40.2453 2.02472 40.1349C0.36813 40.0981 0 40.6135 0 42.2333C0.0552173 56.148 0.0483177 70.0835 0.0414155 84.0241Z" fill="url(#paint0_linear_1212_4881)"/>
</g>
<path d="M256.68 70.02H273.24C274.84 70.02 276.42 70.22 277.98 70.62C279.54 70.98 280.92 71.6 282.12 72.48C283.36 73.32 284.36 74.42 285.12 75.78C285.88 77.14 286.26 78.78 286.26 80.7C286.26 83.1 285.58 85.08 284.22 86.64C282.86 88.2 281.08 89.32 278.88 90V90.12C281.56 90.48 283.76 91.52 285.48 93.24C287.2 94.96 288.06 97.26 288.06 100.14C288.06 102.46 287.6 104.42 286.68 106.02C285.76 107.58 284.54 108.84 283.02 109.8C281.54 110.76 279.82 111.46 277.86 111.9C275.94 112.3 273.98 112.5 271.98 112.5H256.68V70.02ZM264.24 87.3H270.96C273.48 87.3 275.4 86.8 276.72 85.8C278.04 84.8 278.7 83.38 278.7 81.54C278.7 79.62 278.02 78.26 276.66 77.46C275.3 76.66 273.18 76.26 270.3 76.26H264.24V87.3ZM264.24 106.14H271.02C271.98 106.14 273.02 106.08 274.14 105.96C275.26 105.8 276.28 105.5 277.2 105.06C278.16 104.62 278.94 103.98 279.54 103.14C280.18 102.3 280.5 101.18 280.5 99.78C280.5 97.54 279.74 95.98 278.22 95.1C276.7 94.22 274.4 93.78 271.32 93.78H264.24V106.14ZM314.248 95.22C314.248 94.3 314.108 93.42 313.828 92.58C313.588 91.74 313.188 91 312.628 90.36C312.068 89.72 311.348 89.22 310.468 88.86C309.628 88.46 308.628 88.26 307.468 88.26C305.308 88.26 303.468 88.92 301.948 90.24C300.468 91.52 299.648 93.18 299.488 95.22H314.248ZM321.448 98.46C321.448 98.78 321.448 99.1 321.448 99.42C321.448 99.74 321.428 100.06 321.388 100.38H299.488C299.568 101.42 299.828 102.38 300.268 103.26C300.748 104.1 301.368 104.84 302.128 105.48C302.888 106.08 303.748 106.56 304.708 106.92C305.668 107.28 306.668 107.46 307.708 107.46C309.508 107.46 311.028 107.14 312.268 106.5C313.508 105.82 314.528 104.9 315.328 103.74L320.128 107.58C317.288 111.42 313.168 113.34 307.768 113.34C305.528 113.34 303.468 113 301.588 112.32C299.708 111.6 298.068 110.6 296.668 109.32C295.308 108.04 294.228 106.48 293.428 104.64C292.668 102.76 292.288 100.64 292.288 98.28C292.288 95.96 292.668 93.86 293.428 91.98C294.228 90.06 295.308 88.44 296.668 87.12C298.028 85.76 299.628 84.72 301.468 84C303.348 83.24 305.368 82.86 307.528 82.86C309.528 82.86 311.368 83.2 313.048 83.88C314.768 84.52 316.248 85.5 317.488 86.82C318.728 88.1 319.688 89.72 320.368 91.68C321.088 93.6 321.448 95.86 321.448 98.46ZM333.955 97.2L323.575 83.7H332.215L338.455 92.64L344.875 83.7H353.155L342.835 97.2L354.595 112.5H345.835L338.335 102L330.775 112.5H322.255L333.955 97.2ZM364.981 97.2L354.601 83.7H363.241L369.481 92.64L375.901 83.7H384.181L373.861 97.2L385.621 112.5H376.861L369.361 102L361.801 112.5H353.281L364.981 97.2ZM388.808 67.14H396.008V112.5H388.808V67.14ZM423.823 95.22C423.823 94.3 423.683 93.42 423.403 92.58C423.163 91.74 422.763 91 422.203 90.36C421.643 89.72 420.923 89.22 420.043 88.86C419.203 88.46 418.203 88.26 417.043 88.26C414.883 88.26 413.043 88.92 411.523 90.24C410.043 91.52 409.223 93.18 409.063 95.22H423.823ZM431.023 98.46C431.023 98.78 431.023 99.1 431.023 99.42C431.023 99.74 431.003 100.06 430.963 100.38H409.063C409.143 101.42 409.403 102.38 409.843 103.26C410.323 104.1 410.943 104.84 411.703 105.48C412.463 106.08 413.323 106.56 414.283 106.92C415.243 107.28 416.243 107.46 417.283 107.46C419.083 107.46 420.603 107.14 421.843 106.5C423.083 105.82 424.103 104.9 424.903 103.74L429.703 107.58C426.863 111.42 422.743 113.34 417.343 113.34C415.103 113.34 413.043 113 411.163 112.32C409.283 111.6 407.643 110.6 406.243 109.32C404.883 108.04 403.803 106.48 403.003 104.64C402.243 102.76 401.863 100.64 401.863 98.28C401.863 95.96 402.243 93.86 403.003 91.98C403.803 90.06 404.883 88.44 406.243 87.12C407.603 85.76 409.203 84.72 411.043 84C412.923 83.24 414.943 82.86 417.103 82.86C419.103 82.86 420.943 83.2 422.623 83.88C424.343 84.52 425.823 85.5 427.063 86.82C428.303 88.1 429.263 89.72 429.943 91.68C430.663 93.6 431.023 95.86 431.023 98.46ZM265.26 146.62H252.24V140.02H285.84V146.62H272.82V182.5H265.26V146.62ZM303.759 165.22C303.759 164.3 303.619 163.42 303.339 162.58C303.099 161.74 302.699 161 302.139 160.36C301.579 159.72 300.859 159.22 299.979 158.86C299.139 158.46 298.139 158.26 296.979 158.26C294.819 158.26 292.979 158.92 291.459 160.24C289.979 161.52 289.159 163.18 288.999 165.22H303.759ZM310.959 168.46C310.959 168.78 310.959 169.1 310.959 169.42C310.959 169.74 310.939 170.06 310.899 170.38H288.999C289.079 171.42 289.339 172.38 289.779 173.26C290.259 174.1 290.879 174.84 291.639 175.48C292.399 176.08 293.259 176.56 294.219 176.92C295.179 177.28 296.179 177.46 297.219 177.46C299.019 177.46 300.539 177.14 301.779 176.5C303.019 175.82 304.039 174.9 304.839 173.74L309.639 177.58C306.799 181.42 302.679 183.34 297.279 183.34C295.039 183.34 292.979 183 291.099 182.32C289.219 181.6 287.579 180.6 286.179 179.32C284.819 178.04 283.739 176.48 282.939 174.64C282.179 172.76 281.799 170.64 281.799 168.28C281.799 165.96 282.179 163.86 282.939 161.98C283.739 160.06 284.819 158.44 286.179 157.12C287.539 155.76 289.139 154.72 290.979 154C292.859 153.24 294.879 152.86 297.039 152.86C299.039 152.86 300.879 153.2 302.559 153.88C304.279 154.52 305.759 155.5 306.999 156.82C308.239 158.1 309.199 159.72 309.879 161.68C310.599 163.6 310.959 165.86 310.959 168.46ZM336.412 161.68C335.852 160.88 335.012 160.22 333.892 159.7C332.772 159.14 331.632 158.86 330.473 158.86C329.152 158.86 327.992 159.14 326.992 159.7C325.992 160.22 325.152 160.92 324.472 161.8C323.832 162.68 323.352 163.68 323.032 164.8C322.712 165.88 322.552 166.98 322.552 168.1C322.552 169.22 322.712 170.34 323.032 171.46C323.392 172.54 323.912 173.52 324.592 174.4C325.272 175.28 326.112 176 327.112 176.56C328.152 177.08 329.352 177.34 330.712 177.34C331.832 177.34 332.952 177.12 334.073 176.68C335.193 176.24 336.092 175.6 336.772 174.76L341.273 179.32C340.073 180.6 338.533 181.6 336.652 182.32C334.812 183 332.812 183.34 330.652 183.34C328.532 183.34 326.512 183 324.592 182.32C322.712 181.64 321.052 180.64 319.612 179.32C318.212 178 317.092 176.4 316.252 174.52C315.452 172.64 315.052 170.5 315.052 168.1C315.052 165.78 315.452 163.68 316.252 161.8C317.092 159.92 318.212 158.32 319.612 157C321.012 155.68 322.632 154.66 324.472 153.94C326.352 153.22 328.352 152.86 330.473 152.86C332.592 152.86 334.632 153.26 336.593 154.06C338.592 154.86 340.172 155.96 341.332 157.36L336.412 161.68ZM360.849 152.86C362.729 152.86 364.329 153.2 365.649 153.88C367.009 154.52 368.109 155.38 368.949 156.46C369.829 157.54 370.469 158.78 370.869 160.18C371.269 161.58 371.469 163.02 371.469 164.5V182.5H364.269V166.66C364.269 165.82 364.209 164.96 364.089 164.08C363.969 163.16 363.709 162.34 363.309 161.62C362.949 160.86 362.409 160.24 361.689 159.76C361.009 159.28 360.089 159.04 358.929 159.04C357.769 159.04 356.769 159.26 355.929 159.7C355.089 160.14 354.389 160.74 353.829 161.5C353.269 162.22 352.849 163.04 352.569 163.96C352.289 164.88 352.149 165.82 352.149 166.78V182.5H344.949V137.14H352.149V157.72H352.269C352.549 157.12 352.949 156.54 353.469 155.98C354.029 155.38 354.669 154.86 355.389 154.42C356.109 153.94 356.929 153.56 357.849 153.28C358.769 153 359.769 152.86 360.849 152.86ZM378.668 153.7H385.508V158.32H385.628C386.268 156.88 387.368 155.62 388.928 154.54C390.528 153.42 392.408 152.86 394.568 152.86C396.448 152.86 398.048 153.2 399.368 153.88C400.728 154.52 401.828 155.38 402.668 156.46C403.548 157.54 404.188 158.78 404.588 160.18C404.988 161.58 405.188 163.02 405.188 164.5V182.5H397.988V166.54C397.988 165.7 397.928 164.82 397.808 163.9C397.688 162.98 397.428 162.16 397.028 161.44C396.628 160.68 396.068 160.06 395.348 159.58C394.668 159.1 393.748 158.86 392.588 158.86C391.428 158.86 390.428 159.1 389.588 159.58C388.748 160.02 388.048 160.6 387.488 161.32C386.968 162.04 386.568 162.88 386.288 163.84C386.008 164.76 385.868 165.7 385.868 166.66V182.5H378.668V153.7ZM410.71 167.98C410.71 165.7 411.11 163.64 411.91 161.8C412.75 159.92 413.87 158.32 415.27 157C416.67 155.68 418.33 154.66 420.25 153.94C422.17 153.22 424.21 152.86 426.37 152.86C428.53 152.86 430.57 153.22 432.49 153.94C434.41 154.66 436.07 155.68 437.47 157C438.87 158.32 439.97 159.92 440.77 161.8C441.61 163.64 442.03 165.7 442.03 167.98C442.03 170.26 441.61 172.34 440.77 174.22C439.97 176.1 438.87 177.72 437.47 179.08C436.07 180.4 434.41 181.44 432.49 182.2C430.57 182.96 428.53 183.34 426.37 183.34C424.21 183.34 422.17 182.96 420.25 182.2C418.33 181.44 416.67 180.4 415.27 179.08C413.87 177.72 412.75 176.1 411.91 174.22C411.11 172.34 410.71 170.26 410.71 167.98ZM418.03 167.98C418.03 169.1 418.19 170.22 418.51 171.34C418.87 172.46 419.39 173.46 420.07 174.34C420.75 175.22 421.61 175.94 422.65 176.5C423.69 177.06 424.93 177.34 426.37 177.34C427.81 177.34 429.05 177.06 430.09 176.5C431.13 175.94 431.99 175.22 432.67 174.34C433.35 173.46 433.85 172.46 434.17 171.34C434.53 170.22 434.71 169.1 434.71 167.98C434.71 166.86 434.53 165.76 434.17 164.68C433.85 163.56 433.35 162.56 432.67 161.68C431.99 160.8 431.13 160.1 430.09 159.58C429.05 159.02 427.81 158.74 426.37 158.74C424.93 158.74 423.69 159.02 422.65 159.58C421.61 160.1 420.75 160.8 420.07 161.68C419.39 162.56 418.87 163.56 418.51 164.68C418.19 165.76 418.03 166.86 418.03 167.98ZM447.931 137.14H455.131V182.5H447.931V137.14ZM460.986 167.98C460.986 165.7 461.386 163.64 462.186 161.8C463.026 159.92 464.146 158.32 465.546 157C466.946 155.68 468.606 154.66 470.526 153.94C472.446 153.22 474.486 152.86 476.646 152.86C478.806 152.86 480.846 153.22 482.766 153.94C484.686 154.66 486.346 155.68 487.746 157C489.146 158.32 490.246 159.92 491.046 161.8C491.886 163.64 492.306 165.7 492.306 167.98C492.306 170.26 491.886 172.34 491.046 174.22C490.246 176.1 489.146 177.72 487.746 179.08C486.346 180.4 484.686 181.44 482.766 182.2C480.846 182.96 478.806 183.34 476.646 183.34C474.486 183.34 472.446 182.96 470.526 182.2C468.606 181.44 466.946 180.4 465.546 179.08C464.146 177.72 463.026 176.1 462.186 174.22C461.386 172.34 460.986 170.26 460.986 167.98ZM468.306 167.98C468.306 169.1 468.466 170.22 468.786 171.34C469.146 172.46 469.666 173.46 470.346 174.34C471.026 175.22 471.886 175.94 472.926 176.5C473.966 177.06 475.206 177.34 476.646 177.34C478.086 177.34 479.326 177.06 480.366 176.5C481.406 175.94 482.266 175.22 482.946 174.34C483.626 173.46 484.126 172.46 484.446 171.34C484.806 170.22 484.986 169.1 484.986 167.98C484.986 166.86 484.806 165.76 484.446 164.68C484.126 163.56 483.626 162.56 482.946 161.68C482.266 160.8 481.406 160.1 480.366 159.58C479.326 159.02 478.086 158.74 476.646 158.74C475.206 158.74 473.966 159.02 472.926 159.58C471.886 160.1 471.026 160.8 470.346 161.68C469.666 162.56 469.146 163.56 468.786 164.68C468.466 165.76 468.306 166.86 468.306 167.98ZM527.367 153.7V179.92C527.367 182.52 527.047 184.86 526.407 186.94C525.767 189.06 524.767 190.84 523.407 192.28C522.087 193.76 520.407 194.9 518.367 195.7C516.327 196.5 513.907 196.9 511.107 196.9C509.947 196.9 508.707 196.8 507.387 196.6C506.107 196.4 504.827 196.1 503.547 195.7C502.307 195.3 501.107 194.8 499.947 194.2C498.787 193.6 497.747 192.92 496.827 192.16L500.967 186.58C502.367 187.9 503.947 188.9 505.707 189.58C507.467 190.3 509.247 190.66 511.047 190.66C512.767 190.66 514.207 190.4 515.367 189.88C516.567 189.4 517.507 188.72 518.187 187.84C518.907 186.96 519.407 185.92 519.687 184.72C520.007 183.52 520.167 182.2 520.167 180.76V178.66H520.047C519.007 180.06 517.667 181.14 516.027 181.9C514.427 182.62 512.627 182.98 510.627 182.98C508.467 182.98 506.507 182.58 504.747 181.78C502.987 180.98 501.487 179.9 500.247 178.54C499.047 177.18 498.107 175.6 497.427 173.8C496.747 171.96 496.407 170.02 496.407 167.98C496.407 165.9 496.727 163.94 497.367 162.1C498.047 160.26 498.987 158.66 500.187 157.3C501.427 155.94 502.907 154.86 504.627 154.06C506.387 153.26 508.347 152.86 510.507 152.86C512.547 152.86 514.447 153.28 516.207 154.12C517.967 154.96 519.367 156.26 520.407 158.02H520.527V153.7H527.367ZM512.007 158.74C510.687 158.74 509.507 158.98 508.467 159.46C507.467 159.94 506.607 160.6 505.887 161.44C505.207 162.24 504.667 163.2 504.267 164.32C503.907 165.44 503.727 166.64 503.727 167.92C503.727 169.08 503.907 170.2 504.267 171.28C504.667 172.36 505.207 173.34 505.887 174.22C506.607 175.06 507.467 175.74 508.467 176.26C509.507 176.78 510.667 177.04 511.947 177.04C513.267 177.04 514.447 176.8 515.487 176.32C516.567 175.8 517.467 175.12 518.187 174.28C518.947 173.44 519.527 172.48 519.927 171.4C520.327 170.28 520.527 169.12 520.527 167.92C520.527 166.68 520.327 165.5 519.927 164.38C519.527 163.26 518.947 162.28 518.187 161.44C517.467 160.6 516.587 159.94 515.547 159.46C514.507 158.98 513.327 158.74 512.007 158.74ZM534.917 153.7H542.117V182.5H534.917V153.7ZM533.897 143.92C533.897 142.76 534.317 141.76 535.157 140.92C536.037 140.04 537.137 139.6 538.457 139.6C539.777 139.6 540.877 140.02 541.757 140.86C542.677 141.66 543.137 142.68 543.137 143.92C543.137 145.16 542.677 146.2 541.757 147.04C540.877 147.84 539.777 148.24 538.457 148.24C537.137 148.24 536.037 147.82 535.157 146.98C534.317 146.1 533.897 145.08 533.897 143.92ZM569.932 165.22C569.932 164.3 569.792 163.42 569.512 162.58C569.272 161.74 568.872 161 568.312 160.36C567.752 159.72 567.032 159.22 566.152 158.86C565.312 158.46 564.312 158.26 563.152 158.26C560.992 158.26 559.152 158.92 557.632 160.24C556.152 161.52 555.332 163.18 555.172 165.22H569.932ZM577.132 168.46C577.132 168.78 577.132 169.1 577.132 169.42C577.132 169.74 577.112 170.06 577.072 170.38H555.172C555.252 171.42 555.512 172.38 555.952 173.26C556.432 174.1 557.052 174.84 557.812 175.48C558.572 176.08 559.432 176.56 560.392 176.92C561.352 177.28 562.352 177.46 563.392 177.46C565.192 177.46 566.712 177.14 567.952 176.5C569.192 175.82 570.212 174.9 571.012 173.74L575.812 177.58C572.972 181.42 568.852 183.34 563.452 183.34C561.212 183.34 559.152 183 557.272 182.32C555.392 181.6 553.752 180.6 552.352 179.32C550.992 178.04 549.912 176.48 549.112 174.64C548.352 172.76 547.972 170.64 547.972 168.28C547.972 165.96 548.352 163.86 549.112 161.98C549.912 160.06 550.992 158.44 552.352 157.12C553.712 155.76 555.312 154.72 557.152 154C559.032 153.24 561.052 152.86 563.212 152.86C565.212 152.86 567.052 153.2 568.732 153.88C570.452 154.52 571.932 155.5 573.172 156.82C574.412 158.1 575.372 159.72 576.052 161.68C576.772 163.6 577.132 165.86 577.132 168.46ZM598.685 161.38C598.045 160.54 597.165 159.82 596.045 159.22C594.925 158.58 593.705 158.26 592.385 158.26C591.225 158.26 590.165 158.5 589.205 158.98C588.245 159.46 587.765 160.26 587.765 161.38C587.765 162.5 588.285 163.3 589.325 163.78C590.405 164.22 591.965 164.68 594.005 165.16C595.085 165.4 596.165 165.72 597.245 166.12C598.365 166.52 599.365 167.06 600.245 167.74C601.165 168.38 601.905 169.2 602.465 170.2C603.025 171.16 603.305 172.34 603.305 173.74C603.305 175.5 602.965 177 602.285 178.24C601.645 179.44 600.765 180.42 599.645 181.18C598.565 181.94 597.285 182.48 595.805 182.8C594.365 183.16 592.865 183.34 591.305 183.34C589.065 183.34 586.885 182.94 584.765 182.14C582.645 181.3 580.885 180.12 579.485 178.6L584.225 174.16C585.025 175.2 586.065 176.06 587.345 176.74C588.625 177.42 590.045 177.76 591.605 177.76C592.125 177.76 592.645 177.7 593.165 177.58C593.725 177.46 594.225 177.28 594.665 177.04C595.145 176.76 595.525 176.4 595.805 175.96C596.085 175.52 596.225 174.98 596.225 174.34C596.225 173.14 595.665 172.28 594.545 171.76C593.465 171.24 591.825 170.72 589.625 170.2C588.545 169.96 587.485 169.66 586.445 169.3C585.445 168.9 584.545 168.4 583.745 167.8C582.945 167.16 582.305 166.38 581.825 165.46C581.345 164.54 581.105 163.4 581.105 162.04C581.105 160.44 581.425 159.06 582.065 157.9C582.745 156.74 583.625 155.8 584.705 155.08C585.785 154.32 587.005 153.76 588.365 153.4C589.725 153.04 591.125 152.86 592.565 152.86C594.645 152.86 596.665 153.22 598.625 153.94C600.625 154.66 602.205 155.76 603.365 157.24L598.685 161.38Z" fill="#361163"/>
<path d="M200.5 257V0H199.5V257H200.5Z" fill="#361163" mask="url(#path-2-inside-1_1212_4881)"/>
<defs>
<linearGradient id="paint0_linear_1212_4881" x1="8" y1="67.1328" x2="119" y2="202.633" gradientUnits="userSpaceOnUse">
<stop stop-color="#A2C5F4"/>
<stop offset="0.260417" stop-color="#F4B2FD"/>
<stop offset="0.494792" stop-color="#E22CFF"/>
<stop offset="0.755208" stop-color="#AF6AFC"/>
<stop offset="1" stop-color="#6061FC"/>
</linearGradient>
<clipPath id="clip0_1212_4881">
<rect width="140" height="176.739" fill="white" transform="translate(0 40.1328)"/>
</clipPath>
</defs>
</svg>
