<svg xmlns="http://www.w3.org/2000/svg" xmlns:xlink="http://www.w3.org/1999/xlink" width="1920" height="1080" viewBox="0 0 1920 1080">
  <defs>
    <clipPath id="clip-Web_1920_3">
      <rect width="1920" height="1080"/>
    </clipPath>
  </defs>
  <g id="Web_1920_3" data-name="Web 1920 – 3" clip-path="url(#clip-Web_1920_3)">
    <rect width="1920" height="1080" fill="#fff"/>
    <path id="Path_11553" data-name="Path 11553" d="M820.516,1121.3c472.834,0,1013.51-1052.715,1013.51-712.384,0,91.889,93.012,255.309,26.01,366.6-180.6,299.994-694.351,816.18-1039.52,816.18-282.754,0-656.7-377.453-837.61-584.639C-138.286,868.269-121.74,662.533-121.74,525.72c0-124.221,84.924-49.173,172.615,26.71C203.86,684.816,520.267,1121.3,820.516,1121.3Z" transform="translate(79.1 -511.701)" fill="#fafaff"/>
    <path id="Path_11554" data-name="Path 11554" d="M519.411,872.1c321.8,0,689.763-716.444,689.763-484.826,0,62.537-39.32,121.5-84.919,197.24-122.912,204.166-369.933,431.336-604.844,431.336-192.434,0-364.585-142.2-487.71-283.2-82.48-94.457-153.56-172.77-153.56-265.881,0-84.541,57.8-33.466,117.476,18.178C99.734,575.047,315.071,872.1,519.411,872.1Z" transform="translate(416.343 -593.515)" fill="#fafaff"/>
  </g>
</svg>
