<svg width="96" height="90" viewBox="0 0 96 90" fill="none" xmlns="http://www.w3.org/2000/svg">
<path d="M0.146973 40.6054C0.146973 18.5141 18.0556 0.605469 40.147 0.605469H55.7776C77.869 0.605469 95.7776 18.5141 95.7776 40.6055V49.363C95.7776 71.4544 77.869 89.3629 55.7776 89.3629H40.147C18.0556 89.3629 0.146973 71.4543 0.146973 49.3629V40.6054Z" fill="#FDF1FF"/>
<g filter="url(#filter0_d_179_10)">
<path d="M47.4403 29.8849C37.682 29.8849 29.7713 37.2271 29.7713 46.2841H34.1885C37.8479 46.2841 40.8144 49.0374 40.8144 52.4337V58.5834C40.8144 61.9798 37.8479 64.7331 34.1885 64.7331H31.9799C28.3205 64.7331 25.354 61.9798 25.354 58.5834V46.2841C25.354 34.9628 35.2424 25.7852 47.4403 25.7852C59.6382 25.7852 69.5266 34.9628 69.5266 46.2841V58.5834C69.5266 61.9798 66.5601 64.7331 62.9007 64.7331H60.6921C57.0327 64.7331 54.0662 61.9798 54.0662 58.5834V52.4337C54.0662 49.0374 57.0327 46.2841 60.6921 46.2841H65.1093C65.1093 37.2271 57.1986 29.8849 47.4403 29.8849ZM65.1093 50.3839H60.6921C59.4723 50.3839 58.4834 51.3016 58.4834 52.4337V58.5834C58.4834 59.7155 59.4723 60.6333 60.6921 60.6333H62.9007C64.1205 60.6333 65.1093 59.7155 65.1093 58.5834V50.3839ZM29.7713 50.3839V58.5834C29.7713 59.7155 30.7601 60.6333 31.9799 60.6333H34.1885C35.4083 60.6333 36.3972 59.7155 36.3972 58.5834V52.4337C36.3972 51.3016 35.4083 50.3839 34.1885 50.3839H29.7713Z" fill="#E752FE"/>
</g>
<defs>
<filter id="filter0_d_179_10" x="22.8748" y="24.343" width="49.1307" height="43.9056" filterUnits="userSpaceOnUse" color-interpolation-filters="sRGB">
<feFlood flood-opacity="0" result="BackgroundImageFix"/>
<feColorMatrix in="SourceAlpha" type="matrix" values="0 0 0 0 0 0 0 0 0 0 0 0 0 0 0 0 0 0 127 0" result="hardAlpha"/>
<feOffset dy="1.03704"/>
<feGaussianBlur stdDeviation="1.23958"/>
<feComposite in2="hardAlpha" operator="out"/>
<feColorMatrix type="matrix" values="0 0 0 0 0 0 0 0 0 0 0 0 0 0 0 0 0 0 0.054902 0"/>
<feBlend mode="normal" in2="BackgroundImageFix" result="effect1_dropShadow_179_10"/>
<feBlend mode="normal" in="SourceGraphic" in2="effect1_dropShadow_179_10" result="shape"/>
</filter>
</defs>
</svg>
