<svg width="96" height="89" viewBox="0 0 96 89" fill="none" xmlns="http://www.w3.org/2000/svg">
<path d="M0.146973 40.2109C0.146973 18.1195 18.0556 0.210938 40.147 0.210938H55.7776C77.869 0.210938 95.7776 18.1196 95.7776 40.2109V48.9684C95.7776 71.0598 77.869 88.9684 55.7776 88.9684H40.147C18.0556 88.9684 0.146973 71.0598 0.146973 48.9684V40.2109Z" fill="#FDF1FF"/>
<path d="M35.183 27.4553C33.9632 27.4553 32.9744 28.373 32.9744 29.5051V58.2036C32.9744 59.3357 33.9632 60.2535 35.183 60.2535H61.6866C62.9064 60.2535 63.8952 59.3357 63.8952 58.2036V43.8544C63.8952 42.7223 64.884 41.8045 66.1038 41.8045C67.3236 41.8045 68.3125 42.7223 68.3125 43.8544V58.2036C68.3125 61.6 65.3459 64.3533 61.6866 64.3533H35.183C31.5236 64.3533 28.5571 61.6 28.5571 58.2036V29.5051C28.5571 26.1088 31.5236 23.3555 35.183 23.3555H48.4348C49.6546 23.3555 50.6434 24.2732 50.6434 25.4054C50.6434 26.5375 49.6546 27.4553 48.4348 27.4553H35.183Z" fill="#E752FE"/>
<path d="M39.7419 43.1648C39.4039 43.4784 39.1848 43.8853 39.1172 44.3244L38.076 51.0887C37.8678 52.4415 39.1172 53.6011 40.5748 53.4079L47.8629 52.4415C48.336 52.3788 48.7744 52.1754 49.1123 51.8617L65.7708 36.4005C68.3584 33.9989 68.3584 30.1051 65.7708 27.7035C63.1832 25.3019 58.988 25.3019 56.4004 27.7035L39.7419 43.1648ZM57.9621 37.85L46.5094 48.4796L42.8653 48.9628L43.3859 45.5806L54.8386 34.951L57.9621 37.85ZM61.0856 34.951L57.9621 32.052L59.5239 30.6025C60.3864 29.802 61.7848 29.802 62.6473 30.6025C63.5099 31.4031 63.5099 32.701 62.6473 33.5015L61.0856 34.951Z" fill="#E752FE"/>
</svg>
