<svg width="97" height="89" viewBox="0 0 97 89" fill="none" xmlns="http://www.w3.org/2000/svg">
<path d="M0.810059 40.2109C0.810059 18.1195 18.7187 0.210938 40.8101 0.210938H56.4407C78.532 0.210938 96.4407 18.1196 96.4407 40.2109V48.9684C96.4407 71.0598 78.532 88.9684 56.4407 88.9684H40.8101C18.7187 88.9684 0.810059 71.0598 0.810059 48.9684V40.2109Z" fill="#FDF1FF"/>
<g filter="url(#filter0_d_179_11)">
<path d="M27.2842 29.5071C27.2842 26.1107 30.2507 23.3574 33.9101 23.3574H55.9964C58.8813 23.3574 61.3356 25.0687 62.2452 27.4572H62.6222C66.2816 27.4572 69.2481 30.2105 69.2481 33.6069V37.4205C69.2481 40.3519 67.0188 42.8758 63.9217 43.4507L48.9373 46.2322C47.905 46.4239 47.1618 47.2652 47.1618 48.2423V48.5046C48.4822 49.2135 49.3705 50.5384 49.3705 52.0559V60.2555C49.3705 62.5197 47.3928 64.3553 44.9532 64.3553C42.5136 64.3553 40.536 62.5197 40.536 60.2555V52.0559C40.536 50.5384 41.4243 49.2135 42.7446 48.5046V48.2423C42.7446 45.3109 44.9739 42.7869 48.071 42.212L63.0554 39.4306C64.0878 39.2389 64.8309 38.3976 64.8309 37.4205V33.6069C64.8309 32.4748 63.842 31.557 62.6222 31.557C62.6222 34.9534 59.6557 37.7067 55.9964 37.7067H33.9101C30.2507 37.7067 27.2842 34.9534 27.2842 31.557V29.5071ZM58.205 29.5071C58.205 28.375 57.2162 27.4572 55.9964 27.4572H33.9101C32.6903 27.4572 31.7014 28.375 31.7014 29.5071V31.557C31.7014 32.6891 32.6903 33.6069 33.9101 33.6069H55.9964C57.2162 33.6069 58.205 32.6891 58.205 31.557V29.5071Z" fill="#E752FE"/>
</g>
<defs>
<filter id="filter0_d_179_11" x="24.805" y="21.9153" width="46.9222" height="45.9564" filterUnits="userSpaceOnUse" color-interpolation-filters="sRGB">
<feFlood flood-opacity="0" result="BackgroundImageFix"/>
<feColorMatrix in="SourceAlpha" type="matrix" values="0 0 0 0 0 0 0 0 0 0 0 0 0 0 0 0 0 0 127 0" result="hardAlpha"/>
<feOffset dy="1.03704"/>
<feGaussianBlur stdDeviation="1.23958"/>
<feComposite in2="hardAlpha" operator="out"/>
<feColorMatrix type="matrix" values="0 0 0 0 0 0 0 0 0 0 0 0 0 0 0 0 0 0 0.054902 0"/>
<feBlend mode="normal" in2="BackgroundImageFix" result="effect1_dropShadow_179_11"/>
<feBlend mode="normal" in="SourceGraphic" in2="effect1_dropShadow_179_11" result="shape"/>
</filter>
</defs>
</svg>
