<svg width="97" height="90" viewBox="0 0 97 90" fill="none" xmlns="http://www.w3.org/2000/svg">
<path d="M0.504883 40.6054C0.504883 18.5141 18.4135 0.605469 40.5049 0.605469H56.1355C78.2269 0.605469 96.1355 18.5141 96.1355 40.6055V49.363C96.1355 71.4544 78.2269 89.3629 56.1355 89.3629H40.5049C18.4135 89.3629 0.504883 71.4543 0.504883 49.3629V40.6054Z" fill="#FDF1FF"/>
<g filter="url(#filter0_d_179_9)">
<path d="M46.8735 27.4278L34.4657 31.4069C33.2276 31.804 32.3571 32.9348 32.3571 34.2466V44.8664C32.3571 49.2729 34.6566 52.9581 37.8051 55.9556C40.9595 58.9587 44.7323 61.0357 47.045 62.1366C47.5519 62.3779 48.1138 62.3779 48.6207 62.1366C50.9334 61.0357 54.7062 58.9587 57.8606 55.9556C61.0091 52.9581 63.3086 49.2729 63.3086 44.8664V34.2466C63.3086 32.9348 62.4381 31.804 61.1999 31.4069L48.7922 27.4278C48.1691 27.228 47.4966 27.228 46.8735 27.4278ZM46.0705 63.8972L45.6407 64.8001L46.0705 63.8972C43.655 62.7474 39.6561 60.5544 36.275 57.3355C32.8935 54.1162 30.2212 49.9625 30.2212 44.8664V34.2466C30.2212 32.133 31.629 30.2226 33.7686 29.5365L46.1764 25.5574C47.2512 25.2127 48.4145 25.2127 49.4893 25.5574L61.8971 29.5365C64.0367 30.2226 65.4445 32.133 65.4445 34.2466V44.8664C65.4445 49.9625 62.7722 54.1162 59.3907 57.3355C56.0095 60.5544 52.0107 62.7474 49.5952 63.8972C48.4762 64.4298 47.1894 64.4298 46.0705 63.8972ZM35.0765 33.3114L47.4843 29.3323C47.7101 29.2598 47.9555 29.2598 48.1814 29.3323L60.5892 33.3114C61.0399 33.456 61.3086 33.8457 61.3086 34.2466V44.8664C61.3086 48.5205 59.4116 51.7176 56.4816 54.5071C53.5758 57.2734 50.0598 59.2305 47.8328 60.2965C45.6059 59.2305 42.0899 57.2734 39.1841 54.5071C36.2541 51.7176 34.3571 48.5205 34.3571 44.8664V34.2466C34.3571 33.8457 34.6258 33.456 35.0765 33.3114Z" stroke="#E752FE" stroke-width="2" shape-rendering="crispEdges"/>
</g>
<defs>
<filter id="filter0_d_179_9" x="26.742" y="22.8567" width="42.1815" height="45.9564" filterUnits="userSpaceOnUse" color-interpolation-filters="sRGB">
<feFlood flood-opacity="0" result="BackgroundImageFix"/>
<feColorMatrix in="SourceAlpha" type="matrix" values="0 0 0 0 0 0 0 0 0 0 0 0 0 0 0 0 0 0 127 0" result="hardAlpha"/>
<feOffset dy="1.03704"/>
<feGaussianBlur stdDeviation="1.23958"/>
<feComposite in2="hardAlpha" operator="out"/>
<feColorMatrix type="matrix" values="0 0 0 0 0 0 0 0 0 0 0 0 0 0 0 0 0 0 0.054902 0"/>
<feBlend mode="normal" in2="BackgroundImageFix" result="effect1_dropShadow_179_9"/>
<feBlend mode="normal" in="SourceGraphic" in2="effect1_dropShadow_179_9" result="shape"/>
</filter>
</defs>
</svg>
