<svg width="96" height="89" viewBox="0 0 96 89" fill="none" xmlns="http://www.w3.org/2000/svg">
<path d="M0 40C0 17.9086 17.9086 0 40 0H55.6306C77.722 0 95.6306 17.9086 95.6306 40V48.7575C95.6306 70.8489 77.722 88.7575 55.6306 88.7575H40C17.9086 88.7575 0 70.8489 0 48.7575V40Z" fill="#FDF1FF"/>
<path d="M55.8909 31.9958C56.7581 31.9958 57.606 31.7575 58.3275 31.311L64.6764 27.3827V46.2653C64.6764 47.3912 63.693 48.3039 62.48 48.3039H60.2836V52.3809H62.48C66.1191 52.3809 69.0691 49.6429 69.0691 46.2653V27.3827C69.0691 24.1264 65.1589 22.1841 62.2397 23.9904L55.8909 27.9188H40.5163C36.8773 27.9188 33.9272 30.6568 33.9272 34.0343V36.0728H38.32V34.0343C38.32 32.9085 39.3033 31.9958 40.5163 31.9958H55.8909Z" fill="#E752FE"/>
<path d="M28.5343 60.2057V62.1937L30.1305 61.0086L33.9755 58.1536C34.5768 57.7071 35.3342 57.4574 36.1234 57.4574H53.6944C55.3881 57.4574 56.8907 56.1659 56.8907 54.4189V42.1878C56.8907 40.4407 55.3881 39.1493 53.6944 39.1493H31.7307C30.0369 39.1493 28.5343 40.4407 28.5343 42.1878V60.2057ZM36.1234 59.5344H35.7928L35.5273 59.7315L31.6823 62.5864C30.5637 63.417 29.1686 63.471 28.0388 62.967C26.9116 62.4642 26.1416 61.4556 26.1416 60.2057V42.1878C26.1416 39.4315 28.5724 37.0723 31.7307 37.0723H53.6944C56.8527 37.0723 59.2835 39.4315 59.2835 42.1878V54.4189C59.2835 57.1751 56.8527 59.5344 53.6944 59.5344H36.1234ZM36.1234 55.4574C34.9177 55.4574 33.7396 55.8377 32.7832 56.5479L30.5343 58.2177V42.1878C30.5343 41.6832 30.9984 41.1493 31.7307 41.1493H53.6944C54.4266 41.1493 54.8907 41.6832 54.8907 42.1878V54.4189C54.8907 54.9235 54.4266 55.4574 53.6944 55.4574H36.1234Z" fill="white" stroke="#E752FE" stroke-width="2"/>
<path d="M33.9268 48.3041C33.9268 47.1783 34.9101 46.2656 36.1231 46.2656H49.3013C50.5143 46.2656 51.4977 47.1783 51.4977 48.3041C51.4977 49.43 50.5143 50.3426 49.3013 50.3426H36.1231C34.9101 50.3426 33.9268 49.43 33.9268 48.3041Z" fill="#E752FE"/>
</svg>
