<svg width="97" height="89" viewBox="0 0 97 89" fill="none" xmlns="http://www.w3.org/2000/svg">
<path d="M0.504883 44.5897C0.504883 20.08 20.3739 0.210938 44.8836 0.210938H51.7567C76.2664 0.210938 96.1355 20.08 96.1355 44.5897C96.1355 69.0994 76.2664 88.9684 51.7567 88.9684H44.8836C20.3739 88.9684 0.504883 69.0994 0.504883 44.5897Z" fill="#FDF1FF"/>
<g filter="url(#filter0_d_179_12)">
<path d="M30.9925 38.7566H30.232L30.0288 39.4893C29.6416 40.8855 29.4358 42.3492 29.4358 43.8563C29.4358 45.3635 29.6416 46.8271 30.0288 48.2233L30.232 48.9561H30.9925H37.27H38.3785L38.2647 47.8535C38.1313 46.5599 38.0617 45.2224 38.0617 43.8563C38.0617 42.4903 38.1313 41.1528 38.2647 39.8592L38.3785 38.7566H37.27H30.9925ZM31.951 35.1278L30.998 36.6568H32.7996H37.9301H38.7315L38.9061 35.8746C39.3603 33.8387 39.9837 31.993 40.7416 30.4103C40.8682 30.1458 40.9995 29.8868 41.1353 29.6341L42.551 27.0007L39.8358 28.2525C36.5456 29.7695 33.7961 32.1674 31.951 35.1278ZM41.7097 38.7566H40.8179L40.7162 39.6425C40.5617 40.9877 40.479 42.3985 40.479 43.8563C40.479 45.3142 40.5617 46.7249 40.7162 48.0702L40.8179 48.9561H41.7097H54.5H55.3918L55.4935 48.0702C55.648 46.7249 55.7307 45.3142 55.7307 43.8563C55.7307 42.3985 55.648 40.9877 55.4935 39.6425L55.3918 38.7566H54.5H41.7097ZM34.7369 34.6568C35.6886 33.4787 36.8198 32.4288 38.0944 31.5429C37.7292 32.526 37.4096 33.5679 37.1386 34.6568H34.7369ZM53.7553 36.6568H55.043L54.7242 35.4092C54.3269 33.8543 53.8235 32.4395 53.2354 31.2116C52.4723 29.6179 51.5948 28.3979 50.6831 27.5926C49.7743 26.7899 48.9042 26.4572 48.1048 26.4572C47.3055 26.4572 46.4354 26.7899 45.5266 27.5926C44.6149 28.3979 43.7374 29.6179 42.9742 31.2116C42.3862 32.4395 41.8828 33.8543 41.4855 35.4092L41.1667 36.6568H42.4544H53.7553ZM58.9397 38.7566H57.8312L57.945 39.8592C58.0784 41.1528 58.148 42.4903 58.148 43.8563C58.148 45.2224 58.0784 46.5599 57.945 47.8535L57.8312 48.9561H58.9397H65.2172H65.9777L66.1809 48.2234C66.5681 46.8271 66.7739 45.3635 66.7739 43.8563C66.7739 42.3492 66.5681 40.8855 66.1809 39.4893L65.9776 38.7566H65.2172H58.9397ZM63.4101 36.6568H65.2117L64.2587 35.1278C62.4136 32.1674 59.6641 29.7695 56.3739 28.2525L53.6587 27.0007L55.0744 29.6342C55.2102 29.8868 55.3415 30.1457 55.4681 30.4103C56.226 31.993 56.8493 33.8387 57.3036 35.8746L57.4782 36.6568H58.2796H63.4101ZM39.8358 59.4602L42.551 60.712L41.1353 58.0785C40.9995 57.8258 40.8682 57.5669 40.7416 57.3024C39.9837 55.7197 39.3603 53.8739 38.9061 51.8381L38.7315 51.0559H37.9301H32.7996H30.998L31.951 52.5848C33.7961 55.5453 36.5456 57.9432 39.8358 59.4602ZM42.4544 51.0559H41.1667L41.4855 52.3035C41.8828 53.8584 42.3862 55.2731 42.9742 56.5011C43.7374 58.0947 44.6149 59.3148 45.5266 60.1201C46.4354 60.9228 47.3055 61.2555 48.1048 61.2555C48.9042 61.2555 49.7743 60.9228 50.6831 60.1201L50.021 59.3706L50.6831 60.1201C51.5948 59.3148 52.4723 58.0947 53.2354 56.5011C53.8235 55.2731 54.3269 53.8584 54.7242 52.3035L55.043 51.0559H53.7553H42.4544ZM58.2796 51.0559H57.4782L57.3036 51.8381C56.8493 53.8739 56.226 55.7197 55.4681 57.3024L55.8606 57.4903L55.4681 57.3024C55.3415 57.5669 55.2102 57.8258 55.0744 58.0785L53.6587 60.712L56.3739 59.4602C59.6641 57.9432 62.4136 55.5453 64.2587 52.5848L65.2117 51.0559H63.4101H58.2796ZM27.0186 43.8563C27.0186 33.1563 36.3877 24.3574 48.1048 24.3574C59.822 24.3574 69.1911 33.1563 69.1911 43.8563C69.1911 54.5564 59.822 63.3553 48.1048 63.3553C36.3877 63.3553 27.0186 54.5564 27.0186 43.8563ZM31.4358 43.8563C31.4358 42.7939 31.5522 41.7573 31.7736 40.7566H36.1771C36.1009 41.7709 36.0617 42.8062 36.0617 43.8563C36.0617 44.9065 36.1009 45.9418 36.1771 46.9561H31.7736C31.5522 45.9554 31.4358 44.9188 31.4358 43.8563ZM42.479 43.8563C42.479 42.7919 42.5255 41.7559 42.6134 40.7566H53.5963C53.6842 41.7559 53.7307 42.7919 53.7307 43.8563C53.7307 44.9207 53.6842 45.9567 53.5963 46.9561H42.6134C42.5255 45.9567 42.479 44.9207 42.479 43.8563ZM60.148 43.8563C60.148 42.8062 60.1088 41.7709 60.0326 40.7566H64.4361C64.6575 41.7573 64.7739 42.7939 64.7739 43.8563C64.7739 44.9188 64.6575 45.9554 64.4361 46.9561H60.0326C60.1088 45.9418 60.148 44.9065 60.148 43.8563Z" stroke="#E752FE" stroke-width="2" shape-rendering="crispEdges"/>
</g>
<defs>
<filter id="filter0_d_179_12" x="23.5394" y="21.9153" width="49.1307" height="45.9564" filterUnits="userSpaceOnUse" color-interpolation-filters="sRGB">
<feFlood flood-opacity="0" result="BackgroundImageFix"/>
<feColorMatrix in="SourceAlpha" type="matrix" values="0 0 0 0 0 0 0 0 0 0 0 0 0 0 0 0 0 0 127 0" result="hardAlpha"/>
<feOffset dy="1.03704"/>
<feGaussianBlur stdDeviation="1.23958"/>
<feComposite in2="hardAlpha" operator="out"/>
<feColorMatrix type="matrix" values="0 0 0 0 0 0 0 0 0 0 0 0 0 0 0 0 0 0 0.054902 0"/>
<feBlend mode="normal" in2="BackgroundImageFix" result="effect1_dropShadow_179_12"/>
<feBlend mode="normal" in="SourceGraphic" in2="effect1_dropShadow_179_12" result="shape"/>
</filter>
</defs>
</svg>
