<svg width="59" height="61" viewBox="0 0 59 61" fill="none" xmlns="http://www.w3.org/2000/svg">
<ellipse cx="29.5" cy="30.1445" rx="29.5" ry="30" fill="url(#paint0_linear_122_3)"/>
<path d="M36.8824 18.1445H23.1176C19.7529 18.1445 17 20.7916 17 24.0269V37.2622C17 40.4975 19.7529 43.1445 23.1176 43.1445H36.8824C40.2471 43.1445 43 40.4975 43 37.2622V24.0269C43 20.7916 40.2471 18.1445 36.8824 18.1445ZM41.4706 37.2622C41.4706 39.6945 39.412 41.6739 36.8824 41.6739H23.1176C20.588 41.6739 18.5294 39.6945 18.5294 37.2622V28.4386H23.4342C22.9968 29.3357 22.7353 30.3254 22.7353 31.3798C22.7353 35.2313 25.9945 38.3651 30 38.3651C34.0055 38.3651 37.2647 35.2313 37.2647 31.3798C37.2647 30.3254 37.0032 29.3357 36.5658 28.4386H41.4706V37.2622ZM35.7353 31.3798C35.7353 34.421 33.1628 36.8945 30 36.8945C26.8372 36.8945 24.2647 34.421 24.2647 31.3798C24.2647 28.3386 26.8372 25.8651 30 25.8651C33.1628 25.8651 35.7353 28.3386 35.7353 31.3798ZM35.5854 26.9681C34.2518 25.4107 32.2574 24.3945 30 24.3945C27.7426 24.3945 25.7482 25.4107 24.4146 26.9681H18.5294V24.0269C18.5294 21.5945 20.588 19.6151 23.1176 19.6151H36.8824C39.412 19.6151 41.4706 21.5945 41.4706 24.0269V26.9681H35.5854ZM39.1061 22.1475V24.0563C39.1061 24.496 38.7329 24.8548 38.2772 24.8548H36.1849C35.7261 24.8534 35.3529 24.4945 35.3529 24.0563V22.1475C35.3529 21.7078 35.7261 21.3489 36.1849 21.3489H38.2772C38.7329 21.3489 39.1061 21.7078 39.1061 22.1475Z" fill="white"/>
<defs>
<linearGradient id="paint0_linear_122_3" x1="66.852" y1="0.144528" x2="9.48361" y2="0.144528" gradientUnits="userSpaceOnUse">
<stop stop-color="#E752FE"/>
<stop offset="1" stop-color="#A2C5F4"/>
</linearGradient>
</defs>
</svg>
