<svg width="59" height="61" viewBox="0 0 59 61" fill="none" xmlns="http://www.w3.org/2000/svg">
<ellipse cx="29.5" cy="30.1445" rx="29.5" ry="30" fill="url(#paint0_linear_122_4)"/>
<path d="M17.3094 25.6182H22.6813V41.1445H17.3094L17.3094 25.6182ZM20.0281 18.1445C18.2047 18.1445 17 19.3042 17 20.8248C17 22.3123 18.1562 23.5035 19.9625 23.5035H19.9953C21.8672 23.5035 23.0391 22.3123 23.0234 20.8248C23.0062 19.3042 21.8672 18.1445 20.0281 18.1445ZM35.8313 25.2572C32.9734 25.2572 31.7016 26.7643 30.9969 27.8276V25.6182H25.6422C25.6422 25.6182 25.7078 27.0756 25.6422 41.1445H30.9969V32.4797C30.9969 32.0104 31.0469 31.5547 31.175 31.2118C31.5672 30.2868 32.4438 29.3317 33.9281 29.3317C35.8625 29.3317 36.6438 30.7575 36.6438 32.8406V41.1445H42V32.245C42 27.4817 39.3625 25.2572 35.8313 25.2572Z" fill="white"/>
<defs>
<linearGradient id="paint0_linear_122_4" x1="59.0028" y1="30.1497" x2="-29.0203" y2="30.1497" gradientUnits="userSpaceOnUse">
<stop stop-color="#FF9AB6"/>
<stop offset="0.9895" stop-color="#F03295"/>
<stop offset="1" stop-color="#F03295"/>
</linearGradient>
</defs>
</svg>
