<svg width="177" height="34" viewBox="0 0 177 34" fill="none" xmlns="http://www.w3.org/2000/svg">
<path d="M17.6433 11.6058C17.4166 11.4024 17.1446 11.2396 16.8726 11.1175C17.9152 9.97816 18.4592 8.51327 18.4592 7.00769C18.4592 5.01381 17.4619 3.14201 15.7394 1.88058C14.3795 0.863296 12.657 0.375 10.3905 0.375H0.961914V7.00769V9.93746V13.5997V17.384V24.8712H11.5691C14.1529 24.8712 16.102 24.3422 17.5979 23.2028C19.5471 21.7786 20.6803 19.6627 20.6803 17.4247C20.7257 15.146 19.5924 13.03 17.6433 11.6058ZM5.67621 4.32206H9.52923C11.7051 4.32206 12.4303 4.72897 12.8383 5.17658C13.3369 5.66487 13.6542 6.31593 13.6542 7.00769C13.6542 7.69944 13.3823 8.30981 12.8383 8.8388C12.385 9.2864 11.7051 9.69331 9.52923 9.69331H5.67621V4.32206ZM14.7875 19.7848C14.1529 20.3544 13.2009 20.8834 10.7078 20.8834H5.67621V13.6811H10.7531C13.2463 13.6811 14.1529 14.2101 14.7875 14.7797C15.5128 15.4715 15.9207 16.3667 15.9207 17.2619C15.9207 18.1978 15.5128 19.093 14.7875 19.7848Z" fill="#181E4B"/>
<path d="M36.0469 8.14648H40.4892V24.8706H36.0469V8.14648Z" fill="#181E4B"/>
<path d="M38.2231 0.333984C36.6819 0.333984 35.458 1.43265 35.458 2.85685C35.458 4.24035 36.6819 5.33902 38.2231 5.33902C39.8097 5.33902 41.0336 4.24035 41.0336 2.85685C41.0336 1.47334 39.7643 0.333984 38.2231 0.333984Z" fill="#181E4B"/>
<path d="M57.216 9.24646C55.7201 8.31056 53.9976 7.82227 52.0484 7.82227C50.3712 7.82227 48.7846 8.18849 47.4701 8.88024C44.5236 10.4265 42.7104 13.3563 42.7104 16.4895C42.7104 19.6634 44.4783 22.5118 47.4701 24.0581C48.7846 24.7499 50.5072 25.1568 52.139 25.1568C53.9976 25.1568 55.6747 24.7092 57.08 23.814V23.936C57.08 25.7671 56.808 26.9879 56.1734 27.8424C55.3574 28.9411 53.9976 29.5107 52.1844 29.5107C49.3286 29.5107 47.7874 28.1272 46.6541 26.8251L46.3822 26.4996L43.1637 29.1852L43.3451 29.4294C44.6143 31.2198 47.742 33.295 52.3657 33.295C55.9467 33.295 58.8932 31.7895 60.4344 29.1445C61.205 27.8017 61.5223 26.1334 61.5223 23.7326V8.1478H57.216V9.24646ZM57.08 19.3786C55.9921 20.64 54.3149 21.4132 52.5923 21.4132C49.5099 21.4132 47.1074 19.2565 47.1074 16.5302C47.1074 13.7225 49.3739 11.6473 52.411 11.6473C54.1789 11.6473 55.9467 12.4204 57.08 13.6818V19.3786Z" fill="#181E4B"/>
<path d="M73.2629 7.82119C71.1324 7.82119 69.5005 8.51294 68.4579 9.164V0.333984H64.0156V24.8709H68.4579V13.6807C69.3645 12.7448 70.9057 11.6462 73.1722 11.6462C74.4868 11.6462 75.756 12.1752 76.5266 13.0704C77.0253 13.64 77.4786 14.4132 77.4786 16.5291V24.8709H81.9209V16.6919C81.9209 14.0063 81.3769 12.2565 80.1077 10.7917C78.4305 8.91986 75.9827 7.82119 73.2629 7.82119Z" fill="#181E4B"/>
<path d="M110.887 8.88024C109.572 8.18849 107.986 7.82227 106.308 7.82227C104.359 7.82227 102.637 8.31056 101.141 9.24646V8.18849H96.8345V33.0509H101.277V23.8547C102.682 24.7499 104.359 25.1975 106.218 25.1975C107.85 25.1975 109.617 24.7906 110.887 24.0988C113.878 22.5118 115.646 19.7041 115.646 16.5302C115.692 13.397 113.833 10.4672 110.887 8.88024ZM105.764 21.4132C104.087 21.4132 102.41 20.64 101.277 19.3786V13.6411C102.41 12.3797 104.133 11.6066 105.946 11.6066C108.983 11.6066 111.249 13.7225 111.249 16.4895C111.249 19.2565 108.847 21.4132 105.764 21.4132Z" fill="#181E4B"/>
<path d="M126.662 7.82227C121.403 7.82227 117.596 11.4845 117.596 16.5302C117.596 21.4946 121.721 25.2382 127.206 25.2382C131.829 25.2382 134.186 23.0408 135.002 22.1049L135.229 21.8201L132.283 19.3379L132.011 19.6228C131.013 20.64 129.608 21.6573 127.206 21.6573C124.531 21.6573 122.31 19.9076 121.902 17.5882H135.501L135.546 17.2627C135.592 16.9371 135.592 16.693 135.592 16.5302C135.592 11.5659 131.739 7.82227 126.662 7.82227ZM122.355 14.0887C123.081 12.4611 124.803 11.3624 126.798 11.3624C128.566 11.3624 130.288 12.5018 130.923 14.0887H122.355Z" fill="#181E4B"/>
<path d="M151.955 9.24646C150.459 8.31056 148.737 7.82227 146.788 7.82227C145.11 7.82227 143.524 8.18849 142.209 8.88024C139.263 10.4265 137.45 13.3563 137.45 16.4895C137.45 19.6634 139.218 22.5118 142.209 24.0581C143.524 24.7499 145.246 25.1568 146.878 25.1568C148.737 25.1568 150.505 24.6685 151.955 23.7733V24.8312H156.262V8.1478H151.955V9.24646ZM151.819 19.3786C150.731 20.64 149.054 21.4132 147.332 21.4132C144.249 21.4132 141.847 19.2565 141.847 16.5302C141.847 13.7225 144.113 11.6473 147.15 11.6473C148.918 11.6473 150.686 12.4204 151.819 13.6818V19.3786Z" fill="#181E4B"/>
<path d="M171.855 0.130859H176.297V24.8712H171.855V0.130859Z" fill="#181E4B"/>
<path d="M94.3414 21.2086C93.7521 21.3714 92.7548 21.4528 92.1202 21.4528C91.0323 21.4528 89.9444 21.0866 89.4457 20.5576C88.9924 20.0693 88.9018 19.2961 88.9018 18.3196V11.7276H94.3414V8.14672H88.9018V0.333984H84.4595V18.0754C84.4595 20.2727 85.0034 21.9004 86.1367 22.9991C87.5419 24.4233 89.5364 25.1557 91.9842 25.1557C92.7548 25.1557 93.6161 25.0743 94.3414 24.9522V21.2086Z" fill="#181E4B"/>
<path d="M33.6898 7.98503C33.1005 7.86296 32.4659 7.82227 31.8312 7.82227C29.7008 7.82227 28.0689 8.51402 27.0263 9.16508V8.1478H22.584V24.8719H27.0263V13.6818C27.9329 12.7459 29.4741 11.6473 31.7406 11.6473C32.4205 11.6473 33.1005 11.81 33.7351 12.0542L33.6898 7.98503Z" fill="#181E4B"/>
<path d="M169.861 7.98503C169.271 7.86296 168.637 7.82227 168.002 7.82227C165.872 7.82227 164.24 8.51402 163.197 9.16508V8.1478H158.755V24.8719H163.197V13.6818C164.104 12.7459 165.645 11.6473 167.911 11.6473C168.591 11.6473 169.271 11.81 169.906 12.0542L169.861 7.98503Z" fill="#181E4B"/>
</svg>
