<svg width="219" height="28" viewBox="0 0 219 28" fill="none" xmlns="http://www.w3.org/2000/svg">
<path d="M89.4204 0.769531H96.2997V26.7185H89.4204V0.769531Z" fill="#181E4B"/>
<path d="M102.439 11.8558H99.1177V7.85872H102.439C102.439 2.44089 104.546 0.769531 110.42 0.769531C111.508 0.769531 112.643 0.841565 113.736 0.878177V5.23962C113.091 5.16461 112.487 5.13053 111.877 5.13053C110.299 5.13053 109.326 5.31195 109.326 7.01962V7.85872H113.454V11.8558H109.326V26.7185H102.439V11.8558Z" fill="#181E4B"/>
<path d="M132.732 20.5014C132.732 21.447 133.175 22.1346 133.866 22.6108C134.51 23.0488 135.443 23.2664 136.416 23.2664C137.751 23.2664 139.651 22.755 139.651 21.2661C139.651 19.8149 137.505 19.5199 136.295 19.2621C131.96 18.2863 126.538 18.1773 126.538 13.0878C126.538 8.54553 132 7.31055 136.133 7.31055C140.745 7.31055 145.563 8.51175 145.804 13.4137H139.45C139.45 12.6174 139.127 12.1085 138.557 11.7806C137.993 11.4526 137.222 11.3078 136.37 11.3078C135.242 11.3078 133.417 11.4166 133.417 12.7257C133.417 14.5039 138.033 14.8346 141.193 15.4493C145.442 16.2143 146.535 18.9773 146.535 20.5379C146.535 25.5917 141.193 27.2605 136.456 27.2605C131.477 27.2605 126.377 25.7719 126.169 20.5014H132.732Z" fill="#181E4B"/>
<path d="M149.012 0.769531H155.897V10.4353H155.978C157.031 8.51238 159.863 7.31118 162.373 7.31118C169.379 7.31118 169.943 11.8895 169.943 14.6177V26.7185H163.064V17.5965C163.064 15.0155 163.387 12.3964 159.621 12.3964C157.031 12.3964 155.897 14.3623 155.897 16.4319V26.7185H149.012V0.769531Z" fill="#181E4B"/>
<path d="M179.225 18.7965C179.346 21.3754 181.009 23.0854 183.927 23.0854C185.58 23.0854 187.203 22.3885 187.849 21.0128H194.29C193.035 25.3744 188.539 27.2605 183.842 27.2605C177.003 27.2605 172.341 23.5557 172.341 17.2317C172.341 11.4526 177.486 7.31055 183.68 7.31055C191.21 7.31055 194.975 12.3958 194.652 18.7965H179.225ZM187.768 15.3411C187.647 13.2328 185.989 11.4906 183.68 11.4906C181.251 11.4906 179.634 13.0537 179.225 15.3411H187.768Z" fill="#181E4B"/>
<path d="M197.462 7.85833H204.145V11.161H204.226C205.238 8.76767 207.587 7.49414 210.541 7.49414C211.07 7.49414 211.634 7.52792 212.163 7.63642V13.2717C211.271 13.0541 210.461 12.9071 209.527 12.9071C206.131 12.9071 204.347 15.0151 204.347 17.3779V26.7181H197.462V7.85833Z" fill="#181E4B"/>
<path d="M116.666 7.85905H123.55V26.7189H116.666V7.85905ZM123.526 0.867188H116.661V5.23994H123.526V0.867188Z" fill="#181E4B"/>
<path d="M218.433 26.7051H211.569V22.3301H218.433V26.7051Z" fill="#181E4B"/>
<path d="M30.8821 18.7965C31.0028 21.3754 32.666 23.0854 35.5794 23.0854C37.2421 23.0854 38.8599 22.3885 39.5054 21.0128H45.9409C44.6911 25.3744 40.1957 27.2605 35.4988 27.2605C28.6593 27.2605 24.0029 23.5557 24.0029 17.2317C24.0029 11.4526 29.1431 7.31055 35.3373 7.31055C42.867 7.31055 46.6315 12.3958 46.3087 18.7965H30.8821ZM39.4245 15.3411C39.3036 13.2328 37.6457 11.4906 35.3373 11.4906C32.9077 11.4906 31.2901 13.0537 30.8821 15.3411H39.4245Z" fill="#181E4B"/>
<path d="M62.3906 26.7179C62.1484 26.1343 62.068 25.5514 61.9874 24.9352C60.2033 26.6093 57.5725 27.2605 55.0677 27.2605C51.0558 27.2605 47.9009 25.4421 47.9009 21.5559C47.9009 15.4133 55.3447 15.8912 60.1276 15.0149C61.2969 14.7982 61.947 14.434 61.947 13.2713C61.947 11.8552 60.042 11.3078 58.6258 11.3078C56.7258 11.3078 55.5113 12.0701 55.1832 13.6691H48.7476C48.8683 11.1966 50.1638 9.59746 52.0285 8.6201C53.8932 7.67473 56.3174 7.31055 58.7065 7.31055C63.6908 7.31055 68.5037 8.29014 68.5037 13.6331V26.7179H62.3906ZM57.6579 23.4469C60.934 23.4469 62.0276 21.773 61.8664 17.8859C60.8939 18.4308 59.1146 18.5394 57.6174 18.9045C56.0754 19.2304 54.7804 19.8149 54.7804 21.3023C54.7804 22.8271 56.116 23.4469 57.6579 23.4469Z" fill="#181E4B"/>
<path d="M72.1387 7.85833H78.8215V11.161H78.897C79.9103 8.76767 82.2589 7.49414 85.2124 7.49414C85.7413 7.49414 86.306 7.52792 86.8347 7.63642V13.2717C85.9432 13.0541 85.1318 12.9071 84.2042 12.9071C80.8021 12.9071 79.0183 15.0151 79.0183 17.3779V26.7181H72.1387V7.85833Z" fill="#181E4B"/>
<path d="M0.163086 0.888672H13.6157C19.0709 0.888672 24.1995 3.13555 24.1995 9.36195C24.1995 15.8801 20.0568 18.4225 13.6157 18.4225H7.79447V27.1876H0.163086V0.888672ZM7.79447 13.1148H12.4663C14.8468 13.1148 16.5683 12.2322 16.5683 9.83642C16.5683 7.36944 14.8057 6.37919 12.4663 6.37919H7.79447V13.1148Z" fill="#181E4B"/>
<path d="M218.335 26.7912H211.43V22.3906H218.335V26.7912Z" fill="#181E4B"/>
</svg>
