<svg width="230" height="45" viewBox="0 0 230 45" fill="none" xmlns="http://www.w3.org/2000/svg">
<path d="M184.172 30.159C184.509 29.2771 184.635 28.1649 184.635 26.3242C184.635 24.483 184.509 23.4093 184.172 22.4889C183.499 20.6482 181.941 19.7274 179.711 19.7274C177.48 19.7274 175.964 20.6863 175.291 22.4889C174.954 23.4862 174.828 24.6752 174.828 26.3242C174.828 28.0116 174.954 29.2002 175.291 30.159C175.964 31.9617 177.48 32.9586 179.711 32.9586C181.941 32.9586 183.499 31.9998 184.172 30.159ZM185.056 35.5283C184.803 35.5283 184.635 35.375 184.635 35.1448V33.3809H184.593C183.625 34.8378 181.899 35.9499 178.868 35.9499C175.375 35.9499 172.934 34.4542 171.924 31.5394C171.377 30.0825 171.208 28.6253 171.208 26.3242C171.208 24.0615 171.377 22.6039 171.924 21.1466C172.934 18.2318 175.375 16.7361 178.868 16.7361C181.899 16.7361 183.625 17.8102 184.593 19.2671H184.635V9.83311C184.635 9.60292 184.803 9.44922 185.056 9.44922H187.749C188.002 9.44922 188.17 9.60292 188.17 9.83311V35.1448C188.17 35.375 188.002 35.5283 187.749 35.5283H185.056ZM205.513 29.584V27.5511C205.513 27.3978 205.428 27.3209 205.26 27.3209H201.22C197.726 27.3209 196.211 28.2417 196.211 30.3122C196.211 32.1918 197.726 33.189 200.42 33.189C203.577 33.189 205.513 31.8467 205.513 29.584ZM206.018 35.5282C205.765 35.5282 205.597 35.3749 205.597 35.1447V33.5341H205.555C204.629 34.9145 202.65 35.9502 199.578 35.9502C195.748 35.9502 192.801 34.1478 192.801 30.4275C192.801 26.5542 195.748 24.7515 200.672 24.7515H205.26C205.428 24.7515 205.513 24.6751 205.513 24.5214V23.179C205.513 20.6481 204.418 19.574 200.672 19.574C198.399 19.574 196.968 20.1109 195.79 20.8783C195.58 21.0316 195.327 21.0316 195.2 20.8395L194.064 19.0756C193.938 18.8454 193.98 18.6921 194.148 18.5387C195.664 17.465 198.021 16.7364 201.009 16.7364C206.733 16.7364 208.922 18.4619 208.922 22.9876V35.1447C208.922 35.3749 208.754 35.5282 208.501 35.5282H206.018ZM214.395 42.4314C214.142 42.4314 213.974 42.2781 213.974 42.0479V39.8236C213.974 39.5934 214.142 39.4401 214.395 39.4401H215.153C216.794 39.4401 217.678 38.7883 218.562 36.6786L219.236 34.9915L211.827 17.5413C211.743 17.3115 211.87 17.1578 212.164 17.1578H215.11C215.363 17.1578 215.531 17.2731 215.616 17.5413L220.919 30.8112H221.003L226.096 17.5413C226.18 17.2731 226.349 17.1578 226.601 17.1578H229.464C229.716 17.1578 229.884 17.3115 229.8 17.5413L221.845 36.9476C220.077 41.2808 218.52 42.4314 215.49 42.4314H214.395Z" fill="#181E4B"/>
<path d="M112.196 17.2366C112.196 14.3986 110.134 12.6344 106.598 12.6344H100.201C100.033 12.6344 99.9482 12.7112 99.9482 12.8645V21.6087C99.9482 21.762 100.033 21.8385 100.201 21.8385H106.598C110.134 21.8385 112.196 20.0746 112.196 17.2366ZM96.6231 35.53C96.3708 35.53 96.2021 35.3767 96.2021 35.1465V9.8348C96.2021 9.60498 96.3708 9.45128 96.6231 9.45128H106.809C112.323 9.45128 115.9 12.5195 115.9 17.2366C115.9 21.9538 112.323 25.0216 106.809 25.0216H100.201C100.033 25.0216 99.9482 25.0984 99.9482 25.2518V35.1465C99.9482 35.3767 99.7799 35.53 99.5273 35.53H96.6231ZM124.615 35.722C121.079 35.722 119.69 34.1879 119.69 30.8896V9.83506C119.69 9.60487 119.858 9.45117 120.111 9.45117H122.804C123.057 9.45117 123.225 9.60487 123.225 9.83506V30.6978C123.225 32.2319 123.857 32.7303 125.246 32.7303H126.046C126.298 32.7303 126.466 32.8837 126.466 33.1139V35.3381C126.466 35.5683 126.298 35.722 126.046 35.722H124.615ZM141.872 29.5858V27.5529C141.872 27.3996 141.788 27.3228 141.62 27.3228H137.579C134.085 27.3228 132.57 28.2435 132.57 30.3141C132.57 32.1936 134.085 33.1909 136.779 33.1909C139.936 33.1909 141.872 31.8485 141.872 29.5858ZM142.377 35.53C142.125 35.53 141.956 35.3767 141.956 35.1465V33.536H141.914C140.988 34.9163 139.01 35.952 135.937 35.952C132.107 35.952 129.161 34.1497 129.161 30.4294C129.161 26.5561 132.107 24.7534 137.032 24.7534H141.62C141.788 24.7534 141.872 24.6769 141.872 24.5232V23.1809C141.872 20.6499 140.777 19.5758 137.032 19.5758C134.759 19.5758 133.328 20.1127 132.149 20.8801C131.939 21.0334 131.686 21.0334 131.56 20.8413L130.423 19.0774C130.298 18.8472 130.339 18.6939 130.508 18.5406C132.023 17.4668 134.38 16.7382 137.368 16.7382C143.093 16.7382 145.281 18.4637 145.281 22.9895V35.1465C145.281 35.3767 145.113 35.53 144.86 35.53H142.377ZM163.844 35.5301C163.592 35.5301 163.423 35.3768 163.423 35.1466V24.408C163.423 21.4551 161.95 19.7293 158.919 19.7293C156.184 19.7293 154.29 21.4939 154.29 24.2166V35.1466C154.29 35.3768 154.121 35.5301 153.869 35.5301H151.175C150.922 35.5301 150.754 35.3768 150.754 35.1466V17.5434C150.754 17.3136 150.922 17.1599 151.175 17.1599H153.869C154.121 17.1599 154.29 17.3136 154.29 17.5434V19.2308H154.331C155.3 17.812 157.236 16.7379 159.972 16.7379C164.349 16.7379 166.959 19.461 166.959 23.6413V35.1466C166.959 35.3768 166.791 35.5301 166.538 35.5301H163.844Z" fill="#181E4B"/>
<path d="M61.0766 18.589C60.1882 14.9126 58.0009 11.4361 54.483 8.74664C45.8872 2.17445 33.6964 3.47432 26.8212 10.9402L26.8204 10.9409L1.84834 38.0579C0.228147 39.8174 0.35426 41.7745 2.15198 43.149C3.94969 44.5236 6.08719 44.2967 7.70739 42.5375L22.6598 26.3004L32.6111 15.4949L32.6131 15.4963C32.6356 15.4711 32.6569 15.4451 32.6798 15.4202C32.816 15.2724 32.9549 15.1296 33.0959 14.9902C33.1188 14.9679 33.1429 14.9463 33.1658 14.9236C37.7292 10.497 44.908 10.4169 49.6244 14.0226C49.6244 14.0226 49.6525 14.0387 49.7055 14.0654C55.2453 18.3614 54.9509 25.241 51.0566 29.4696C50.9209 29.6171 50.5939 29.9435 50.5706 29.9658C46.0077 34.3924 38.9373 34.4876 34.0313 30.824C33.0071 30.0299 32.1826 29.1476 31.5436 28.2096C30.7773 27.085 29.0302 26.9716 28.098 27.9868L24.8953 31.4732C26.0022 33.1837 27.4529 34.7665 29.2535 36.1432C37.8493 42.715 50.0401 41.4151 56.9153 33.9496C56.9153 33.9496 62.4104 28.1434 61.0766 18.589Z" fill="#181E4B"/>
<path d="M61.0891 18.5904L76.042 2.35364C77.6622 0.594125 79.7993 0.367599 81.597 1.74176C83.3947 3.11629 83.5212 5.07379 81.901 6.83294L56.9153 33.9481C50.0402 41.4139 37.8489 42.7134 29.2532 36.1416C27.453 34.7652 26.0023 33.1821 24.895 31.472L28.0977 27.9852C29.0302 26.9704 30.7774 27.0838 31.5437 28.2084C32.1827 29.146 33.0197 30.0312 34.0439 30.8254C38.9121 34.4747 45.9997 34.3945 50.5631 29.9679C50.5691 29.9621 50.9491 29.5796 51.0491 29.4713L61.0891 18.5904Z" fill="#181E4B"/>
</svg>
