<svg width="200" height="31" viewBox="0 0 200 31" fill="none" xmlns="http://www.w3.org/2000/svg">
<path d="M176.527 18.3149C176.527 11.1839 178.688 6.1922 187.924 6.1922C197.159 6.1922 199.32 11.1839 199.32 18.3149C199.32 25.4459 197.159 30.4376 187.924 30.4376C178.885 30.4376 176.527 25.4459 176.527 18.3149ZM193.622 18.3149C193.622 13.3232 192.836 10.4708 188.12 10.4708C183.404 10.4708 182.618 13.3232 182.618 18.3149C182.618 23.3066 183.404 26.159 188.12 26.159C192.836 26.159 193.622 23.1283 193.622 18.3149ZM18.7401 29.5462C18.9366 29.7245 19.1331 29.9027 19.3296 29.9027H21.491C21.884 29.9027 22.277 29.5462 22.277 29.1896V7.26185C22.277 6.9053 21.884 6.54875 21.491 6.54875H17.3646C16.9716 6.54875 16.5786 6.9053 16.5786 7.26185V24.5545C14.8101 25.4459 12.6487 25.9807 10.6837 25.9807C7.93276 25.9807 6.55729 24.911 6.55729 22.5935V7.26185C6.55729 6.9053 6.16429 6.54875 5.7713 6.54875H1.64487C1.25188 6.54875 0.858887 6.9053 0.858887 7.26185V22.95C0.858887 27.4069 3.21685 30.4376 9.70123 30.4376C12.6487 30.4376 15.5961 29.5462 17.9541 27.9417L18.7401 29.5462ZM66.6852 13.5015C66.6852 9.0446 64.3273 6.01393 58.2359 6.01393C55.2884 6.01393 52.5375 6.9053 49.983 8.3315C49.0005 6.9053 46.8391 6.01393 43.4986 6.01393C40.7477 6.01393 37.9967 6.9053 35.8353 8.50977L35.0493 6.9053C34.8528 6.72702 34.6563 6.54875 34.4598 6.54875H32.2983C31.9053 6.54875 31.5124 6.9053 31.5124 7.26185V29.1896C31.5124 29.5462 31.9053 29.9027 32.2983 29.9027H36.6213C37.0143 29.9027 37.4072 29.5462 37.4072 29.1896V11.897C38.9792 11.0056 40.9442 10.4708 42.7127 10.4708C45.0706 10.4708 46.4461 11.1839 46.4461 13.5015V29.1896C46.4461 29.5462 46.8391 29.9027 47.2321 29.9027H51.555C51.948 29.9027 52.341 29.5462 52.341 29.1896V11.897C53.913 11.0056 55.8779 10.4708 57.6464 10.4708C59.8079 10.4708 61.3798 11.1839 61.3798 13.5015V29.1896C61.3798 29.5462 61.7728 29.9027 62.1658 29.9027H66.4887C66.8817 29.9027 67.2747 29.5462 67.2747 29.1896L66.6852 13.5015ZM79.8505 27.9417C82.2085 29.5462 85.1559 30.4376 88.1034 30.4376C95.5702 30.4376 98.3212 25.8024 98.3212 18.3149C98.3212 10.8273 95.5702 6.1922 88.1034 6.1922C85.7454 6.1922 83.191 6.9053 81.226 7.97495V0.843958C81.226 0.487409 80.833 0.130859 80.44 0.130859H76.1171C75.7241 0.130859 75.5276 0.487409 75.5276 0.843958V29.1896C75.5276 29.5462 75.9206 29.9027 76.3136 29.9027H78.475C78.6715 29.9027 79.0645 29.7245 79.0645 29.5462L79.8505 27.9417ZM86.7279 25.9807C84.7629 25.9807 82.798 25.4459 81.226 24.5545V11.897C82.9945 11.0056 84.7629 10.4708 86.7279 10.4708C91.8368 10.4708 92.4263 14.0363 92.4263 18.3149C92.4263 22.5935 91.8368 25.9807 86.7279 25.9807ZM119.543 10.6491C118.953 10.6491 118.167 10.4708 117.578 10.4708C115.22 10.4708 113.058 10.8273 111.093 11.897V29.1896C111.093 29.5462 110.7 29.9027 110.307 29.9027H105.985C105.592 29.9027 105.199 29.5462 105.199 29.1896V7.26185C105.199 6.9053 105.592 6.54875 105.985 6.54875H108.146C108.343 6.54875 108.736 6.72702 108.736 6.9053L109.521 8.50977C111.879 6.9053 114.63 6.01393 117.578 6.01393C118.167 6.01393 118.953 6.01393 119.543 6.1922C119.936 6.1922 120.329 6.72703 120.329 7.08357V9.93597C120.329 10.2925 119.936 10.6491 119.543 10.6491ZM134.28 19.2063C131.726 19.5628 130.154 20.2759 130.154 22.7718C130.154 24.5545 130.94 26.159 134.084 26.159C136.049 26.159 138.013 25.6241 139.585 24.5545V18.4932L134.28 19.2063ZM141.157 27.9417C138.996 29.5462 136.245 30.4376 133.494 30.4376C126.813 30.4376 124.652 26.6938 124.652 22.95C124.652 17.9583 128.189 15.819 134.084 15.2842L139.782 14.9277V13.858C139.782 11.5404 138.603 10.4708 134.673 10.4708C132.315 10.4708 129.957 10.8273 127.599 11.5404H127.403C127.01 11.5404 126.617 11.1839 126.617 10.8273V7.79667C126.617 7.44012 126.813 7.26185 127.206 7.08357C129.761 6.37048 132.512 5.83565 135.066 5.83565C143.515 5.83565 145.48 9.22287 145.48 14.0363V28.8331C145.48 29.1896 145.087 29.5462 144.694 29.5462H142.533C142.336 29.5462 141.943 29.3679 141.943 29.1896L141.157 27.9417ZM170.239 25.0893H170.435C170.828 25.0893 171.221 25.4459 171.221 25.8024V28.8331C171.221 29.1896 171.025 29.3679 170.828 29.5462C168.667 30.2593 166.505 30.6158 164.148 30.4376C155.109 30.4376 152.358 25.4459 152.358 18.3149C152.358 11.1839 155.109 6.1922 164.148 6.1922C166.309 6.1922 168.667 6.37048 170.632 7.08357C170.828 7.26185 171.025 7.44012 171.025 7.79667V10.8273C171.025 11.1839 170.632 11.5404 170.239 11.5404H170.042C168.274 11.0056 166.309 10.8273 164.344 10.8273C159.432 10.8273 157.86 13.858 157.86 18.4932C157.86 23.1283 159.235 26.159 164.344 26.159C166.505 25.8024 168.47 25.6241 170.239 25.0893Z" fill="#181E4B"/>
</svg>
