<svg width="86" height="86" viewBox="0 0 86 86" fill="none" xmlns="http://www.w3.org/2000/svg">
<path d="M0 20.6641C0 9.61836 8.95431 0.664062 20 0.664062H65.3176C76.3633 0.664062 85.3176 9.61837 85.3176 20.6641V65.9817C85.3176 77.0274 76.3633 85.9817 65.3176 85.9817H20C8.9543 85.9817 0 77.0274 0 65.9817V20.6641Z" fill="white"/>
<path d="M26.6616 37.3262C26.6616 31.8033 31.1388 27.3262 36.6616 27.3262H47.3226C52.8455 27.3262 57.3226 31.8033 57.3226 37.3262V47.9872C57.3226 53.51 52.8455 57.9872 47.3226 57.9872H36.6616C31.1388 57.9872 26.6616 53.51 26.6616 47.9872V37.3262Z" fill="#E8EEFE"/>
</svg>
