<svg width="754" height="1079" viewBox="0 0 754 1079" fill="none" xmlns="http://www.w3.org/2000/svg">
<path d="M589.175 1078.01L473.499 1045.03C486.519 1046.95 500.108 1048.12 513.785 1048.71C547.839 1050.16 581.214 1047.92 605.678 1045L597.607 1073.31C596.753 1076.31 594.019 1078.27 591.048 1078.27C590.429 1078.27 589.8 1078.18 589.175 1078.01ZM343.302 1007.92C314.781 957.634 324.071 903.217 345.441 856.148C370.381 801.219 413.404 752.012 439.512 722.15L440.039 721.547C463.608 694.589 467.029 671.017 461.715 655.359C456.47 639.909 440.542 625.771 411.255 621.979C390.016 619.228 362.801 618.631 331.743 617.948C314.189 617.563 295.407 617.151 275.784 616.307C223.284 614.051 166.142 608.643 120.961 590.422C77.1849 572.768 45.4155 551.231 25.3466 520.663C9.36932 496.329 1.90224 467.933 0 434.732L37.8874 445.531C38.6997 452.511 39.8346 459.022 41.3006 465.124L58.4274 401.521C57.0185 412.197 56.2192 423.326 55.9044 434.523C55.1776 460.373 57.0468 485.708 59.4609 505.185C74.0815 524.849 97.4779 541.225 134.741 556.253C173.553 571.904 225.086 577.252 277.366 579.498C294.709 580.244 312.353 580.64 329.473 581.025H329.476C362.147 581.76 392.904 582.451 415.986 585.44C455.119 590.508 485.65 611.25 496.603 643.516C507.485 675.575 496.84 712.555 467.776 745.797C441.197 776.199 401.503 821.794 378.988 871.38C356.721 920.422 352.96 968.907 390.747 1010.9C396.707 1017.52 404.732 1023.31 414.612 1028.25L343.302 1007.92ZM704.895 825.457C713.898 804.614 717.545 786.302 716.539 768.775C715.045 742.739 703.099 715.301 676.378 681.144C650.592 648.183 608.636 617.785 564.484 589.7C549.838 580.383 534.755 571.218 520.121 562.325L520.119 562.323C492.193 545.352 465.902 529.374 447.407 515.245C416.05 491.289 399.981 458.06 406.629 424.64C413.234 391.435 440.942 364.733 482.734 350.476C520.953 337.437 578.126 317.797 622.417 286.112C666.223 254.773 693.722 214.665 681.993 159.408C680.142 150.691 676.089 141.663 670.002 132.447L721.595 185.706C721.15 243.517 685.896 286 643.855 316.077C594.792 351.176 532.928 372.281 495.387 385.088L494.629 385.346C460.739 396.908 445.99 415.611 442.763 431.829C439.581 447.83 446.306 468.039 469.774 485.967C486.791 498.968 510.062 513.093 536.617 529.212C551.627 538.323 567.686 548.07 584.259 558.613C628.598 586.817 675.379 620.072 705.397 658.443C734.48 695.62 751.226 730.155 753.322 766.662C754.991 795.726 747.26 824.051 732.308 853.754L704.895 825.457ZM303.152 393.26C277.963 371.881 240.189 339.954 199.355 322.129C158.969 304.5 119.26 302.003 85.3637 333.418C80.0161 338.371 75.3747 345.006 71.4538 353.147L87.2282 294.568C128.026 270.636 172.654 277.583 211.415 294.503C256.647 314.248 297.417 348.854 322.158 369.855L322.658 370.278C344.993 389.237 364.318 391.754 377.063 387.219C389.639 382.744 401.015 369.544 403.766 345.539C405.762 328.132 405.926 305.862 406.112 280.446C406.217 266.082 406.329 250.712 406.785 234.65C408.002 191.674 411.742 144.865 426.108 107.685C440.026 71.663 457.264 45.4154 482.03 28.6322C494.862 19.9364 509.144 14.1689 525.034 10.6625L534.056 1.92302C536.761 -0.699787 541.081 -0.630939 543.703 2.07609L548.609 7.14006C549.741 7.04142 550.878 6.95085 552.024 6.86808L551.224 9.83952L627.395 88.4672C617.076 80.3009 605.895 72.4892 594.343 65.144C577.398 54.3698 560.014 44.8249 543.96 36.8171L543.643 37.9926C525.224 40.4103 510.831 45.5273 498.941 53.5851C481.278 65.5539 467.013 85.4545 454.226 118.549C441.885 150.486 438.128 192.708 436.916 235.503C436.514 249.699 436.401 264.139 436.291 278.147V278.151C436.08 304.885 435.883 330.055 433.713 348.974C430.036 381.048 413.433 406.272 387.168 415.618C380.135 418.121 372.786 419.348 365.269 419.349C344.899 419.35 323.271 410.336 303.152 393.26Z" fill="white"/>
</svg>
